<svg width="80" height="48" viewBox="0 0 80 48" fill="none" xmlns="http://www.w3.org/2000/svg">
<g clip-path="url(#clip0_41_265)">
<path opacity="0.996" fill-rule="evenodd" clip-rule="evenodd" d="M15.2314 17.8318C18.2855 17.8318 21.3395 17.8318 24.3936 17.8318C24.0585 18.6244 23.7166 19.415 23.3678 20.2036C21.6427 20.231 19.9175 20.2349 18.1922 20.2153C17.1031 20.0918 16.26 19.5713 15.6627 18.6537C15.5187 18.3791 15.3749 18.1051 15.2314 17.8318Z" fill="#232422"/>
<path opacity="0.99" fill-rule="evenodd" clip-rule="evenodd" d="M30.1986 17.8318C30.2763 17.8318 30.354 17.8318 30.4317 17.8318C31.4847 20.916 32.5494 23.9962 33.6256 27.0725C34.0016 27.1879 34.3824 27.2153 34.768 27.1547C34.768 25.3543 34.768 23.5539 34.768 21.7535C34.5106 21.726 34.2543 21.6908 33.9987 21.6478C33.9552 21.5739 33.9397 21.4917 33.952 21.4013C34.6204 21.4013 35.2886 21.4013 35.957 21.4013C35.9686 21.8004 35.9803 22.1996 35.9919 22.5989C36.3295 22.1412 36.7452 21.7772 37.2392 21.5069C37.9423 21.2031 38.6417 21.2109 39.3374 21.5304C39.7727 21.7923 40.0095 22.1797 40.0485 22.6928C40.0601 24.1801 40.0641 25.6674 40.0601 27.1547C40.3336 27.1879 40.6054 27.2309 40.8761 27.2838C40.8985 27.3635 40.9062 27.4457 40.8994 27.5304C39.9902 27.5304 39.081 27.5304 38.1717 27.5304C38.165 27.4457 38.1727 27.3635 38.1951 27.2838C38.4259 27.2281 38.659 27.1851 38.8945 27.1547C38.8903 25.6119 38.8709 24.0698 38.8362 22.5285C38.6919 21.9141 38.3072 21.6519 37.6822 21.7418C37.3735 21.8033 37.0937 21.9285 36.8429 22.1175C36.5011 22.3991 36.2097 22.7239 35.9686 23.0921C35.957 24.4463 35.953 25.8004 35.957 27.1547C36.1915 27.1901 36.4246 27.2332 36.6564 27.2838C36.6788 27.3635 36.6865 27.4457 36.6797 27.5304C34.8613 27.5304 33.0428 27.5304 31.2244 27.5304C31.2175 27.438 31.2253 27.348 31.2477 27.2604C31.5624 27.2157 31.8732 27.157 32.1802 27.0842C31.8404 26.1649 31.514 25.2412 31.2011 24.3132C30.1619 24.3054 29.1245 24.3133 28.0887 24.3367C27.777 25.1563 27.4623 25.9743 27.1445 26.7907C27.4837 26.9498 27.8256 27.1024 28.1703 27.2486C28.1934 27.3413 28.2012 27.4352 28.1936 27.5304C27.3543 27.5304 26.5151 27.5304 25.6758 27.5304C25.6758 27.4365 25.6758 27.3425 25.6758 27.2486C26.0665 27.1083 26.4512 26.9517 26.8298 26.7789C27.953 23.7961 29.076 20.8137 30.1986 17.8318ZM29.709 19.9688C30.177 21.3241 30.6432 22.6822 31.1078 24.0431C30.1364 24.0588 29.165 24.0588 28.1936 24.0431C28.7011 22.6857 29.2062 21.3275 29.709 19.9688Z" fill="#232422"/>
<path opacity="0.99" fill-rule="evenodd" clip-rule="evenodd" d="M14.1355 20.3679C14.6485 20.3639 15.1614 20.3679 15.6742 20.3796C16.0862 20.4403 16.4243 20.6321 16.6883 20.9549C16.8538 21.2177 17.0014 21.4916 17.1313 21.7769C17.3529 22.1721 17.6832 22.4265 18.1221 22.5401C19.5204 22.5668 20.9192 22.5863 22.3185 22.5988C21.9643 23.3874 21.6146 24.178 21.2694 24.9706C20.7173 25.0032 20.1655 24.9993 19.6142 24.9589C19.2336 24.8828 18.9266 24.691 18.6933 24.3835C18.499 24.0391 18.3047 23.6947 18.1105 23.3503C17.8602 23.054 17.5455 22.87 17.1663 22.7984C15.8064 22.7867 14.4464 22.7827 13.0864 22.7867C13.4172 21.9716 13.7669 21.1653 14.1355 20.3679Z" fill="#232422"/>
<path opacity="0.98" fill-rule="evenodd" clip-rule="evenodd" d="M43.7205 21.2838C44.7041 21.1975 45.5084 21.5341 46.1335 22.2935C46.4659 22.7717 46.6252 23.304 46.6114 23.8904C45.1737 23.8904 43.7362 23.8904 42.2984 23.8904C42.2945 24.3288 42.2984 24.7672 42.3101 25.2055C42.3136 25.795 42.4845 26.3273 42.823 26.8023C43.1636 27.1856 43.5909 27.3735 44.1052 27.3659C44.979 27.3488 45.6474 26.9731 46.1102 26.2387C46.1801 26.0786 46.2384 25.9142 46.285 25.7456C46.3771 25.7223 46.4704 25.7145 46.5648 25.7221C46.344 26.7469 45.7222 27.3692 44.6997 27.589C43.5158 27.7873 42.5173 27.4468 41.7039 26.5675C41.0672 25.7038 40.8574 24.741 41.0745 23.6791C41.4323 22.2892 42.3143 21.4908 43.7205 21.2838ZM43.8138 21.5656C44.5435 21.5003 45.0058 21.8212 45.2009 22.5284C45.28 22.8762 45.3229 23.2285 45.3292 23.5851C44.3267 23.5851 43.3242 23.5851 42.3217 23.5851C42.3423 23.0951 42.4782 22.6411 42.7297 22.2231C42.996 21.8408 43.3573 21.6217 43.8138 21.5656Z" fill="#232422"/>
<path opacity="0.984" fill-rule="evenodd" clip-rule="evenodd" d="M60.0165 21.2837C61.392 21.204 62.4061 21.7676 63.0589 22.9745C63.5111 24.0576 63.4722 25.1222 62.9423 26.1683C62.2627 27.2405 61.2875 27.7297 60.0165 27.636C58.6746 27.4585 57.8003 26.7188 57.3937 25.4168C57.1482 24.44 57.2725 23.5163 57.7667 22.6458C58.3081 21.8465 59.0578 21.3925 60.0165 21.2837ZM60.0631 21.5655C60.9105 21.4773 61.505 21.8218 61.8466 22.5988C61.9417 22.8491 62.0039 23.1074 62.0331 23.3737C62.0855 24.1574 62.0778 24.9401 62.0098 25.7221C61.8023 26.9805 61.0756 27.5089 59.83 27.3072C59.481 27.208 59.2052 27.0084 59.0023 26.7084C58.7676 26.3276 58.6354 25.9128 58.606 25.4638C58.5904 24.7906 58.5904 24.1174 58.606 23.4442C58.6391 22.8579 58.8529 22.353 59.2471 21.9295C59.4877 21.7328 59.7596 21.6115 60.0631 21.5655Z" fill="#232422"/>
<path opacity="0.981" fill-rule="evenodd" clip-rule="evenodd" d="M69.3883 21.4011C69.3883 21.4872 69.3883 21.5733 69.3883 21.6594C69.155 21.7391 68.9218 21.8213 68.6889 21.906C68.6425 21.9195 68.6076 21.9469 68.584 21.9882C67.8303 24.18 67.0763 26.3718 66.3226 28.5635C66.1867 28.9907 65.9496 29.3469 65.6116 29.632C65.433 29.7298 65.2465 29.7963 65.052 29.8317C64.8578 29.8317 64.6634 29.8317 64.4692 29.8317C64.0988 29.7758 63.7917 29.6036 63.5483 29.315C63.3276 28.9416 63.3196 28.5659 63.525 28.1878C63.8169 27.8804 64.155 27.8217 64.5392 28.0117C64.6466 28.0769 64.7245 28.1669 64.7723 28.2817C64.6828 28.4384 64.6284 28.6067 64.6091 28.7866C64.6525 29.1827 64.87 29.3627 65.2619 29.3268C65.5099 29.2782 65.6925 29.1412 65.8097 28.9158C65.982 28.5047 66.1452 28.0898 66.2993 27.6712C66.3149 27.632 66.3149 27.5929 66.2993 27.5538C65.4092 25.616 64.504 23.6865 63.5833 21.7651C63.3278 21.7222 63.0713 21.687 62.814 21.6594C62.814 21.5733 62.814 21.4872 62.814 21.4011C63.7931 21.4011 64.7723 21.4011 65.7514 21.4011C65.7514 21.4872 65.7514 21.5733 65.7514 21.6594C65.4873 21.6986 65.2229 21.7377 64.9588 21.7769C65.5932 23.1723 66.2343 24.5656 66.8821 25.9569C67.3421 24.6253 67.8047 23.2946 68.2693 21.9647C67.9429 21.8395 67.6088 21.7378 67.2668 21.6594C67.2668 21.5733 67.2668 21.4872 67.2668 21.4011C67.9739 21.4011 68.6812 21.4011 69.3883 21.4011Z" fill="#232422"/>
<path opacity="0.989" fill-rule="evenodd" clip-rule="evenodd" d="M50.5747 21.4246C51.0617 21.3744 51.5203 21.4644 51.9501 21.6947C52.2824 21.9281 52.4961 22.2451 52.5913 22.6457C52.9729 22.1045 53.4741 21.7248 54.095 21.5068C54.6261 21.3742 55.1466 21.4055 55.657 21.6007C56.1158 21.832 56.3839 22.2038 56.4613 22.7162C56.4953 24.2422 56.507 25.7686 56.4963 27.2955C56.7679 27.3368 57.0399 27.3759 57.3122 27.4129C57.3122 27.499 57.3122 27.5851 57.3122 27.6712C56.4107 27.6712 55.5094 27.6712 54.6079 27.6712C54.6079 27.5851 54.6079 27.499 54.6079 27.4129C54.841 27.3737 55.0741 27.3346 55.3073 27.2955C55.3112 25.8708 55.3073 24.4461 55.2956 23.0215C55.2956 22.7475 55.2334 22.4892 55.1091 22.2465C54.934 21.9783 54.6853 21.8531 54.3631 21.8708C53.9392 21.8906 53.5702 22.0432 53.2557 22.3287C53.024 22.5386 52.8179 22.7696 52.6379 23.0215C52.6262 24.4461 52.6223 25.8708 52.6262 27.2955C52.8594 27.3346 53.0925 27.3737 53.3256 27.4129C53.3256 27.499 53.3256 27.5851 53.3256 27.6712C52.4554 27.6712 51.5848 27.6712 50.7145 27.6712C50.7145 27.5851 50.7145 27.499 50.7145 27.4129C50.9477 27.3737 51.1808 27.3346 51.4139 27.2955C51.4249 25.7684 51.4132 24.242 51.379 22.7162C51.3202 22.1638 51.0171 21.882 50.4698 21.8708C50.1895 21.8739 49.9291 21.9482 49.6888 22.0939C49.3206 22.3473 49.0059 22.6565 48.7446 23.0215C48.7329 24.4461 48.7289 25.8708 48.7329 27.2955C48.966 27.3346 49.1992 27.3737 49.4323 27.4129C49.4323 27.499 49.4323 27.5851 49.4323 27.6712C48.5308 27.6712 47.6295 27.6712 46.728 27.6712C46.728 27.5851 46.728 27.499 46.728 27.4129C46.9996 27.3715 47.2716 27.3324 47.5439 27.2955C47.5439 25.4951 47.5439 23.6947 47.5439 21.8943C47.2791 21.8646 47.0149 21.8293 46.7513 21.7886C46.7289 21.7089 46.7212 21.6267 46.728 21.542C47.3963 21.542 48.0645 21.542 48.7329 21.542C48.7289 21.8865 48.7329 22.231 48.7446 22.5753C49.1171 22.1041 49.5796 21.7558 50.1317 21.5303C50.2816 21.4906 50.4292 21.4553 50.5747 21.4246Z" fill="#232422"/>
<path opacity="0.995" fill-rule="evenodd" clip-rule="evenodd" d="M10.9883 27.5303C10.9883 27.5068 10.9883 27.4833 10.9883 27.4599C11.3443 26.6859 11.694 25.9071 12.0374 25.1233C13.7004 25.1076 15.3634 25.1076 17.0264 25.1233C18.3417 25.2237 19.3015 25.8617 19.9056 27.0372C19.9927 27.1967 20.0665 27.3611 20.1271 27.5303C17.0808 27.5303 14.0346 27.5303 10.9883 27.5303Z" fill="#232522"/>
</g>
<defs>
<clipPath id="clip0_41_265">
<rect width="58.4" height="12" fill="white" transform="translate(11 17.8434)"/>
</clipPath>
</defs>
</svg>
