<svg width="80" height="48" viewBox="0 0 80 48" fill="none" xmlns="http://www.w3.org/2000/svg">
<g clip-path="url(#clip0_41_303)">
<mask id="mask0_41_303" style="mask-type:luminance" maskUnits="userSpaceOnUse" x="8" y="14" width="20" height="17">
<path fill-rule="evenodd" clip-rule="evenodd" d="M8.09033 14.7435H27.5561V30.3742H8.09033V14.7435Z" fill="white"/>
</mask>
<g mask="url(#mask0_41_303)">
<path fill-rule="evenodd" clip-rule="evenodd" d="M10.3696 29.7938C9.79119 28.5595 9.4681 27.1823 9.4681 25.7301C9.4681 20.4208 13.786 16.1168 19.1125 16.1168C22.0784 16.1168 24.7315 17.4513 26.5006 19.5507L27.5561 18.668C25.5341 16.2686 22.5021 14.7435 19.1125 14.7435C13.0251 14.7435 8.09033 19.6623 8.09033 25.7301C8.09033 27.3898 8.45957 28.9636 9.12066 30.3744L10.3696 29.7938Z" fill="#1F262F"/>
</g>
<path fill-rule="evenodd" clip-rule="evenodd" d="M19.1126 32.2534C15.4982 32.2534 12.5682 29.3329 12.5682 25.7301C12.5682 22.1274 15.4982 19.2068 19.1126 19.2068C21.1252 19.2068 22.9253 20.1126 24.1257 21.5372L25.1814 20.6542C23.7282 18.9297 21.5488 17.8335 19.1126 17.8335C14.7373 17.8335 11.1904 21.3689 11.1904 25.7301C11.1904 30.0913 14.7373 33.6267 19.1126 33.6267V32.2534Z" fill="#1F262F"/>
<path fill-rule="evenodd" clip-rule="evenodd" d="M21.4875 27.7162C20.9189 28.3909 20.0661 28.82 19.1129 28.82C17.4008 28.82 16.0129 27.4366 16.0129 25.7301C16.0129 24.0235 17.4008 22.6401 19.1129 22.6401C20.0661 22.6401 20.9189 23.0692 21.4875 23.744L22.6748 22.7509C21.8218 21.7387 20.5428 21.0951 19.1129 21.0951C16.5448 21.0951 14.4629 23.1702 14.4629 25.7301C14.4629 28.2899 16.5448 30.365 19.1129 30.365C20.4234 30.365 21.6068 29.8242 22.452 28.9549L21.4875 27.7162Z" fill="#1F262F"/>
<path fill-rule="evenodd" clip-rule="evenodd" d="M29.8691 24.2261H31.2857V25.1798H31.3106C31.4431 24.8825 31.6729 24.6204 32.0002 24.3932C32.3273 24.1663 32.7147 24.0526 33.1621 24.0526C33.5513 24.0526 33.8847 24.1207 34.1624 24.257C34.4399 24.3932 34.6675 24.5729 34.8458 24.7958C35.0239 25.0188 35.1544 25.2748 35.2372 25.5637C35.32 25.8528 35.3615 26.1502 35.3615 26.4556V30.1714H33.8704V26.8767C33.8704 26.7033 33.8579 26.5216 33.833 26.3317C33.8082 26.1419 33.7542 25.9705 33.6716 25.8177C33.5887 25.665 33.4747 25.5389 33.3298 25.4399C33.1847 25.3408 32.9922 25.2912 32.752 25.2912C32.5116 25.2912 32.3047 25.3389 32.1308 25.4337C31.9568 25.5287 31.8137 25.6504 31.702 25.7991C31.5902 25.9477 31.5051 26.1192 31.4472 26.313C31.3892 26.5072 31.3603 26.7033 31.3603 26.9014V30.1714H29.8691V24.2261Z" fill="#1F262F"/>
<path fill-rule="evenodd" clip-rule="evenodd" d="M35.9951 25.4151V24.226H37.0389V22.5043H38.5052V24.226H39.9964V25.4151H38.5052V28.1772C38.5052 28.4415 38.5527 28.6603 38.6482 28.8337C38.7432 29.007 38.9567 29.0937 39.288 29.0937C39.3875 29.0937 39.4951 29.0834 39.6111 29.0628C39.727 29.0422 39.8306 29.0114 39.9219 28.9699L39.9714 30.1342C39.8389 30.1837 39.6814 30.2228 39.4993 30.2518C39.317 30.2807 39.1431 30.2952 38.9774 30.2952C38.5797 30.2952 38.2566 30.2394 38.0082 30.1279C37.7597 30.0165 37.5628 29.8639 37.4179 29.6697C37.273 29.4758 37.1735 29.2528 37.1197 29.0009C37.0657 28.7491 37.0389 28.4786 37.0389 28.1895V25.4151H35.9951Z" fill="#1F262F"/>
<path fill-rule="evenodd" clip-rule="evenodd" d="M40.8911 24.2261H42.3201V25.2169H42.345C42.5105 24.8701 42.7426 24.5895 43.0408 24.3747C43.3391 24.1601 43.687 24.0526 44.0846 24.0526C44.1425 24.0526 44.2045 24.0548 44.271 24.0588C44.3372 24.0631 44.3953 24.0733 44.4449 24.0898V25.4523C44.3455 25.4275 44.2606 25.4111 44.1902 25.4027C44.1197 25.3946 44.0514 25.3904 43.9852 25.3904C43.6454 25.3904 43.372 25.4523 43.165 25.5761C42.9579 25.7 42.7964 25.8486 42.6805 26.022C42.5643 26.1955 42.4858 26.3731 42.4444 26.5547C42.4027 26.7363 42.3822 26.8809 42.3822 26.9881V30.1714H40.8911V24.2261Z" fill="#1F262F"/>
<path fill-rule="evenodd" clip-rule="evenodd" d="M45.1282 30.1714H46.6194V24.2261H45.1282V30.1714ZM44.917 22.2071C44.917 21.9678 45.0058 21.7593 45.184 21.5817C45.3621 21.4041 45.588 21.3154 45.8614 21.3154C46.1347 21.3154 46.3646 21.4001 46.551 21.5693C46.7373 21.7386 46.8306 21.9513 46.8306 22.2071C46.8306 22.4631 46.7373 22.6759 46.551 22.845C46.3646 23.0144 46.1347 23.0989 45.8614 23.0989C45.588 23.0989 45.3621 23.0103 45.184 22.8326C45.0058 22.6552 44.917 22.4467 44.917 22.2071Z" fill="#1F262F"/>
<path fill-rule="evenodd" clip-rule="evenodd" d="M48.5454 25.4151H47.4146V24.226H48.5454V23.7814C48.5454 23.4265 48.5845 23.0859 48.6635 22.7596C48.742 22.4335 48.8747 22.1464 49.0611 21.8987C49.2474 21.651 49.4939 21.4549 49.8004 21.3104C50.1068 21.166 50.492 21.0936 50.9561 21.0936C51.1217 21.0936 51.2605 21.0998 51.3724 21.1122C51.4841 21.1246 51.5979 21.1475 51.7141 21.1803L51.6146 22.4437C51.5317 22.419 51.4427 22.3985 51.3475 22.3818C51.2522 22.3653 51.1506 22.357 51.043 22.357C50.8275 22.357 50.6536 22.3985 50.5212 22.4809C50.3885 22.5635 50.287 22.6709 50.2168 22.8029C50.1462 22.9351 50.0987 23.0797 50.0737 23.2365C50.0489 23.3934 50.0365 23.5461 50.0365 23.6947V24.226H51.4158V25.4151H50.0365V30.1713H48.5454V25.4151Z" fill="#1F262F"/>
<path fill-rule="evenodd" clip-rule="evenodd" d="M57.654 30.1713H56.2375V29.2176H56.2125C56.08 29.5149 55.8501 29.7771 55.5229 30.004C55.1956 30.2311 54.8084 30.3448 54.3611 30.3448C53.9716 30.3448 53.6382 30.2767 53.3608 30.1403C53.0831 30.004 52.8554 29.8246 52.6773 29.6016C52.499 29.3786 52.3685 29.1228 52.2859 28.8337C52.203 28.5447 52.1616 28.2474 52.1616 27.9418V24.226H53.6528V27.5207C53.6528 27.6941 53.6652 27.8759 53.6901 28.0657C53.7149 28.2558 53.7687 28.427 53.8516 28.5796C53.9343 28.7327 54.0483 28.8584 54.1932 28.9575C54.3381 29.0566 54.5308 29.1061 54.7712 29.1061C55.0029 29.1061 55.208 29.0587 55.3862 28.9636C55.5643 28.8688 55.7093 28.7469 55.8211 28.5983C55.933 28.4497 56.0178 28.2784 56.0759 28.0843C56.1337 27.8903 56.1629 27.6941 56.1629 27.496V24.226H57.654V30.1713Z" fill="#1F262F"/>
<path fill-rule="evenodd" clip-rule="evenodd" d="M24.8935 25.5699C25.2042 25.3017 25.5831 25.1674 26.0305 25.1674C26.2707 25.1674 26.4797 25.2067 26.658 25.285C26.836 25.3636 26.9831 25.4689 27.0991 25.6009C27.215 25.7331 27.2999 25.8857 27.354 26.0592C27.4077 26.2325 27.4347 26.4143 27.4347 26.6041H24.3778C24.4109 26.1831 24.5828 25.8383 24.8935 25.5699ZM27.6584 28.363C27.4926 28.6026 27.2813 28.7903 27.0246 28.9265C26.7677 29.0629 26.453 29.131 26.0802 29.131C25.8647 29.131 25.6577 29.0937 25.4589 29.0195C25.2601 28.9451 25.0819 28.8441 24.9246 28.716C24.7671 28.5881 24.6407 28.4353 24.5456 28.2577C24.4503 28.0802 24.3944 27.8842 24.3778 27.6694H28.9134C28.9215 27.6034 28.9258 27.5374 28.9258 27.4712V27.273C28.9258 26.7363 28.8532 26.2678 28.7083 25.8671C28.5634 25.4668 28.3624 25.1323 28.1057 24.8639C27.8488 24.5957 27.5444 24.3932 27.1924 24.257C26.8401 24.1207 26.4571 24.0526 26.0429 24.0526C25.5956 24.0526 25.1793 24.1291 24.7942 24.2818C24.4089 24.4347 24.0754 24.6493 23.7938 24.9259C23.512 25.2026 23.2905 25.537 23.1291 25.9291C22.9675 26.3214 22.8867 26.757 22.8867 27.2359C22.8867 27.7232 22.9675 28.1585 23.1291 28.5425C23.2905 28.9265 23.5142 29.2506 23.8 29.5148C24.0858 29.7793 24.4233 29.9836 24.8126 30.128C25.2021 30.2724 25.6286 30.3448 26.0926 30.3448C27.094 30.3448 27.8826 30.0267 28.4589 29.3912L27.6584 28.363Z" fill="#1F262F"/>
<path fill-rule="evenodd" clip-rule="evenodd" d="M67.8705 25.5699C68.1812 25.3017 68.5602 25.1674 69.0075 25.1674C69.2478 25.1674 69.4569 25.2067 69.6352 25.285C69.8132 25.3636 69.9601 25.4689 70.0763 25.6009C70.1922 25.7331 70.277 25.8857 70.331 26.0592C70.3848 26.2325 70.4118 26.4143 70.4118 26.6041H67.3549C67.3879 26.1831 67.56 25.8383 67.8705 25.5699ZM70.6354 28.363C70.4696 28.6026 70.2584 28.7903 70.0018 28.9265C69.7448 29.0629 69.4301 29.131 69.0573 29.131C68.8418 29.131 68.6348 29.0937 68.436 29.0195C68.2371 28.9451 68.0589 28.8441 67.9016 28.716C67.7443 28.5881 67.6178 28.4353 67.5226 28.2577C67.4273 28.0802 67.3714 27.8842 67.3549 27.6694H71.8905C71.8987 27.6034 71.9029 27.5374 71.9029 27.4712V27.273C71.9029 26.7363 71.8303 26.2678 71.6854 25.8671C71.5404 25.4668 71.3394 25.1323 71.0828 24.8639C70.8259 24.5957 70.5214 24.3932 70.1694 24.257C69.8172 24.1207 69.4341 24.0526 69.02 24.0526C68.5726 24.0526 68.1564 24.1291 67.7712 24.2818C67.386 24.4347 67.0524 24.6493 66.7709 24.9259C66.4892 25.2026 66.2676 25.537 66.1061 25.9291C65.9445 26.3214 65.8638 26.757 65.8638 27.2359C65.8638 27.7232 65.9445 28.1585 66.1061 28.5425C66.2676 28.9265 66.4914 29.2506 66.7771 29.5148C67.0628 29.7793 67.4003 29.9836 67.7898 30.128C68.1792 30.2724 68.6057 30.3448 69.0697 30.3448C70.0711 30.3448 70.8596 30.0267 71.4361 29.3912L70.6354 28.363Z" fill="#1F262F"/>
<path fill-rule="evenodd" clip-rule="evenodd" d="M63.4066 27.8653C63.3237 28.0916 63.2056 28.2912 63.0525 28.4641C62.899 28.6368 62.7127 28.7746 62.4933 28.8776C62.2737 28.9805 62.0273 29.0319 61.7539 29.0319C61.4888 29.0319 61.2506 28.9785 61.0394 28.8714C60.8281 28.7644 60.6499 28.6224 60.5051 28.4454C60.3601 28.2685 60.2483 28.0688 60.1696 27.8466C60.0908 27.6244 60.0516 27.3942 60.0516 27.1554C60.0516 26.8922 60.0908 26.6452 60.1696 26.4147C60.2483 26.1842 60.3601 25.9846 60.5051 25.8159C60.6499 25.6471 60.8281 25.5134 61.0394 25.4147C61.2506 25.316 61.493 25.2665 61.7664 25.2665C62.0397 25.2665 62.284 25.316 62.4994 25.4147C62.7149 25.5134 62.899 25.6493 63.0525 25.8221C63.2056 25.9949 63.3237 26.1965 63.4066 26.4269C63.4894 26.6574 63.5308 26.9003 63.5308 27.1554C63.5308 27.4023 63.4894 27.639 63.4066 27.8653ZM63.5308 24.226V25.1178H63.506C63.2904 24.7545 63.0006 24.4861 62.6362 24.3128C62.2716 24.1393 61.8782 24.0526 61.4557 24.0526C61.0084 24.0526 60.6045 24.1353 60.2442 24.3004C59.8837 24.4656 59.5772 24.6885 59.3246 24.9692C59.0718 25.25 58.8773 25.5804 58.7406 25.9601C58.6039 26.34 58.5356 26.7446 58.5356 27.1739C58.5356 27.5951 58.6059 27.9935 58.7468 28.3692C58.8876 28.745 59.0842 29.0732 59.337 29.3538C59.5896 29.6346 59.8981 29.8576 60.2627 30.0226C60.6273 30.1877 61.0332 30.2704 61.4806 30.2704C61.8947 30.2704 62.2696 30.1932 62.6051 30.039C62.9406 29.8847 63.216 29.6615 63.4315 29.3695H63.4564V29.8047C63.4564 30.103 63.4253 30.3764 63.3631 30.6252C63.301 30.8736 63.1973 31.0892 63.0525 31.2715C62.9075 31.4538 62.7127 31.5967 62.4685 31.7004C62.224 31.8039 61.9237 31.8558 61.5676 31.8558C61.1948 31.8558 60.8261 31.7834 60.4616 31.639C60.1066 31.4984 59.7872 31.2968 59.5029 31.0348L58.6225 32.1655C58.8131 32.3223 59.0284 32.4627 59.2687 32.5866C59.5089 32.7105 59.7595 32.8136 60.0205 32.8962C60.2814 32.9787 60.5464 33.0406 60.8158 33.082C61.0848 33.1233 61.3396 33.1439 61.58 33.1439C62.1597 33.1439 62.661 33.0614 63.0835 32.8962C63.506 32.731 63.856 32.4978 64.1336 32.1965C64.411 31.8949 64.6161 31.5275 64.7487 31.0941C64.8811 30.6606 64.9475 30.1753 64.9475 29.6387V24.226H63.5308Z" fill="#1F262F"/>
</g>
<defs>
<clipPath id="clip0_41_303">
<rect width="64" height="19.0178" fill="white" transform="translate(8 14.6911)"/>
</clipPath>
</defs>
</svg>
