<svg width="80" height="48" viewBox="0 0 80 48" fill="none" xmlns="http://www.w3.org/2000/svg">
<g clip-path="url(#clip0_41_438)">
<path d="M65.9385 20.0016H67.289V26.652H71.3643V27.904H65.9385V20.0016Z" fill="black"/>
<path d="M58.7646 20.0016H60.1151V26.652H64.1934V27.904H58.7646V20.0016Z" fill="black"/>
<path d="M53.574 28.0283C53.0716 28.0283 52.6186 27.9543 52.2119 27.8093C51.8052 27.6613 51.4595 27.4423 51.1721 27.1493C50.8845 26.8563 50.6639 26.4922 50.5069 26.0601C50.3529 25.628 50.2744 25.1249 50.2744 24.5536V20.0046H51.6252V24.4974C51.6252 25.2344 51.7994 25.7967 52.1509 26.1785C52.4995 26.5633 52.9815 26.7556 53.5974 26.7556C54.2074 26.7556 54.6838 26.5722 55.0351 26.2022C55.3837 25.8322 55.5608 25.2847 55.5608 24.5536V20.0046H56.9116V24.4856C56.9116 25.0716 56.8331 25.5866 56.6735 26.0305C56.5136 26.4745 56.2899 26.8444 56.0025 27.1434C55.7148 27.4393 55.3662 27.6613 54.9569 27.8093C54.5444 27.9543 54.0825 28.0283 53.574 28.0283Z" fill="black"/>
<path d="M36.0933 26.652C36.4999 26.652 36.8688 26.5869 37.2 26.4537C37.5312 26.3206 37.8156 26.137 38.0481 25.8973C38.2804 25.6605 38.4607 25.3764 38.5914 25.0479C38.7221 24.7193 38.786 24.3642 38.786 23.9765V23.9528C38.786 23.568 38.7221 23.2069 38.5914 22.8754C38.4636 22.541 38.2804 22.2569 38.0481 22.0201C37.8156 21.7804 37.5341 21.5939 37.2 21.4578C36.8688 21.3216 36.497 21.2535 36.0933 21.2535H34.5655V26.6491H36.0933V26.652ZM33.2119 20.0016H36.102C36.7062 20.0016 37.2639 20.1022 37.7692 20.3005C38.2745 20.4988 38.7104 20.777 39.0762 21.1292C39.4424 21.4844 39.7239 21.8987 39.9243 22.3753C40.1248 22.8518 40.2237 23.3697 40.2237 23.9261V23.9528C40.2237 24.5092 40.1248 25.0301 39.9243 25.5096C39.7239 25.992 39.4424 26.4093 39.0762 26.7615C38.7104 27.1137 38.2745 27.3949 37.7692 27.5962C37.2639 27.8004 36.7062 27.901 36.102 27.901H33.2119V20.0016Z" fill="black"/>
<path d="M26.8365 23.2869H27.8531H30.7228V24.5389H26.8365V26.6521H31.2776V27.9041H25.4829V23.2869H26.8365Z" fill="black"/>
<path d="M25.4829 20.0016H31.2224V21.2565H27.8531H26.8365H25.4829V20.0016Z" fill="black"/>
<path d="M20.1415 23.9202C20.6294 23.9202 21.0216 23.8019 21.3091 23.5621C21.5996 23.3253 21.7419 23.0027 21.7419 22.5943V22.5706C21.7419 22.1385 21.6025 21.8129 21.3178 21.5909C21.0361 21.366 20.641 21.2565 20.1298 21.2565H18.1402V23.9202H20.1415ZM16.7895 20.0016H20.246C20.734 20.0016 21.1668 20.0726 21.5415 20.2117C21.9191 20.3508 22.2328 20.5462 22.4826 20.7918C22.6888 21.0108 22.8485 21.2624 22.9589 21.5495C23.0693 21.8366 23.1245 22.1503 23.1245 22.4966V22.5203C23.1245 22.8429 23.078 23.1359 22.9851 23.3964C22.8921 23.6568 22.7643 23.8847 22.6016 24.086C22.439 24.2843 22.2444 24.4559 22.0207 24.595C21.7942 24.7341 21.5473 24.8407 21.2743 24.9177L23.3685 27.9099H21.7622L19.851 25.1544H19.8278H18.1373V27.9099H16.7866V20.0016H16.7895Z" fill="black"/>
<path d="M43.0293 21.2003H46.0792C46.3611 21.2003 46.6254 21.3157 46.8258 21.517C47.0233 21.7183 47.1365 21.9905 47.1365 22.2776C47.1365 22.5647 47.0233 22.8341 46.8258 23.0383C46.6283 23.2395 46.3611 23.355 46.0792 23.355H41.856V24.5537H46.0792C46.3611 24.5537 46.6254 24.6691 46.8258 24.8703C47.0233 25.0716 47.1365 25.3439 47.1365 25.631C47.1365 25.9181 47.0233 26.1874 46.8258 26.3916C46.6283 26.5929 46.3611 26.7083 46.0792 26.7083H43.0293C43.0293 27.5074 43.0293 28.3065 43.0293 29.1057H44.2057V27.907H46.0792C46.6718 27.907 47.238 27.6673 47.6564 27.2381C48.0777 26.8119 48.3128 26.2347 48.3128 25.631C48.3128 25.0272 48.0777 24.4501 47.6564 24.0238C47.6476 24.015 47.6389 24.0061 47.6275 23.9943L47.5867 23.9528L47.6275 23.9114C47.636 23.9025 47.6476 23.8936 47.6564 23.8818C48.0748 23.4556 48.3128 22.8785 48.3128 22.2747C48.3128 21.6709 48.0777 21.0938 47.6564 20.6676C47.238 20.2384 46.6718 19.9987 46.0792 19.9987H44.2057V18.8H43.0293C43.0293 19.6021 43.0293 20.4012 43.0293 21.2003Z" fill="black"/>
<path d="M9.25481 21.2802H14.8752V20.0046H12.1507V18.8059H10.8959V20.0046C9.93159 20.0046 8.96433 20.0046 8 20.0046C8 22.399 8 25.5155 8 27.91C8.96433 27.91 9.93159 27.91 10.8959 27.91V29.1057H12.1507V27.91H14.8752V26.6313H9.25481V21.2802Z" fill="black"/>
</g>
<defs>
<clipPath id="clip0_41_438">
<rect width="63.6" height="10.4" fill="white" transform="translate(8 18.8)"/>
</clipPath>
</defs>
</svg>
