<svg width="80" height="48" viewBox="0 0 80 48" fill="none" xmlns="http://www.w3.org/2000/svg">
<path d="M16.1522 21.3658C15.954 21.5662 15.4916 21.5642 15.2934 21.3839C15.0953 21.2036 15.0292 20.8545 15.2934 20.6341C15.5577 20.4137 15.954 20.4941 16.1522 20.6544C16.3503 20.8147 16.3503 21.1655 16.1522 21.3658Z" fill="black"/>
<path d="M14.0714 19.9346C13.8551 20.1746 13.7711 20.3144 13.6079 20.697C13.3963 21.1927 13.2061 21.7401 13.1288 22.079C13.0515 22.4178 13.2055 22.7088 13.5564 22.9073C13.9275 23.1171 14.3275 23.2805 14.8684 23.4641C15.4092 23.6476 15.7973 23.9093 15.9209 24.1775C16.0446 24.4457 16.0164 24.9623 15.7383 25.4564C15.4601 25.9506 15.0725 26.4098 14.3926 26.8616C13.7127 27.3133 13.2482 27.4208 12.5759 27.5619C11.9035 27.7031 12.1243 28.051 12.3561 28.1216C12.5879 28.1922 13.0978 28.2628 13.7778 28.2345C14.4578 28.2063 15.1368 28.051 15.9403 27.6839C16.7439 27.3169 17.532 26.6815 17.9501 25.8344C18.3681 24.9873 18.5349 23.7922 18.0504 23.039C17.7689 22.6013 17.6247 22.496 17.532 22.2202C17.4393 21.9443 17.4987 21.7342 17.6714 21.5425C17.7709 21.432 17.9935 21.3207 18.1974 21.1876C18.3581 21.0827 18.5519 20.9777 18.691 20.893C18.8301 20.8083 18.8773 20.7641 18.7846 20.7076L18.7813 20.7056C18.6875 20.6484 18.5026 20.5358 18.181 20.4271C17.8556 20.3172 17.7943 20.302 17.6714 20.293C17.5483 20.2841 17.3938 20.3829 17.1466 20.5523C16.8993 20.7217 16.7912 20.7548 16.7757 20.9476C16.7603 21.1404 16.6984 21.3853 16.5285 21.5971C16.3585 21.8088 16.1306 21.9163 15.8255 21.9443C15.5204 21.9723 15.1078 21.8866 14.905 21.6695C14.7021 21.4525 14.6204 21.3286 14.6204 21.0208C14.6204 20.713 14.7514 20.4958 14.9255 20.3405C15.0996 20.1852 15.0914 20.1288 15.0914 20.0582C15.0914 19.9876 15.0509 19.7475 15.017 19.6355C14.9832 19.5236 14.8617 19.5059 14.6634 19.5649C14.4557 19.6266 14.2878 19.6946 14.0714 19.9346Z" fill="black"/>
<path d="M11.0074 25.8257C10.9073 25.8496 10.8371 26.0051 10.6405 26.3161C10.4439 26.627 10.2595 26.8543 9.90761 27.2012C9.55573 27.5481 9.33469 27.6916 8.77492 28.0026L8.76048 28.0106C8.21234 28.3151 8.05112 28.4047 8.01309 28.4968C7.97472 28.5897 7.99729 28.7121 8.40878 28.7695C8.82027 28.8269 9.16331 28.8398 9.75774 28.4691C10.3522 28.0983 10.8192 27.7394 11.4351 27.4763C12.0511 27.2131 12.2439 27.2297 12.9338 27.0457C13.6237 26.8617 14.2526 26.5007 14.6866 26.0619C15.1206 25.6232 15.3375 25.1809 15.4255 24.9297C15.5133 24.6784 15.5258 24.3436 15.2911 24.1761C15.0668 24.0161 14.9456 23.968 14.4506 23.8005C13.9241 23.6224 13.7493 23.5777 13.3614 23.2986C12.9959 23.0356 13.0176 22.9727 12.7879 22.9448C12.5583 22.9169 12.3842 23.2278 12.3067 23.3835C12.2484 23.5007 12.2384 23.7075 12.3928 23.9022C12.5472 24.0968 12.6908 24.3111 13.1137 24.5286C13.5366 24.7461 13.7337 24.7809 14.0221 24.8244C14.3104 24.8679 14.423 24.9297 14.3456 25.0536C14.2681 25.1775 14.113 25.2376 13.8496 25.2376C13.586 25.2376 13.214 25.1278 12.842 24.9297C12.5797 24.79 12.3925 24.6325 12.2558 24.4768C12.1229 24.3254 12.0432 24.3034 11.9199 24.3034C11.7967 24.3034 11.6953 24.3742 11.5479 24.5724C11.4005 24.7705 11.292 24.9852 11.2765 25.1014C11.261 25.2177 11.2471 25.3473 11.4796 25.503C11.7121 25.6587 11.913 25.7433 12.1765 25.7858C12.44 25.8283 12.6405 25.9027 12.4475 26.0619C12.2545 26.2211 12.0205 26.1858 11.8345 26.1433C11.6485 26.1009 11.3787 25.9692 11.2765 25.9094C11.1744 25.8496 11.1075 25.8017 11.0074 25.8257ZM16.8494 20.2374C16.9892 20.1586 17.1438 20.0552 17.1438 19.9829C17.1438 19.9105 17.065 19.8238 16.7345 19.6357C16.4039 19.4477 15.9474 19.2341 15.6482 19.2017C15.3492 19.1694 15.4787 19.5996 15.5139 19.7697C15.5492 19.9399 15.5597 20.0723 15.684 20.0861C15.8083 20.0998 15.9016 20.1136 16.0103 20.1411C16.1191 20.1686 16.2589 20.2279 16.4143 20.3104C16.5697 20.393 16.7095 20.3161 16.8494 20.2374ZM23.1653 24.219C23.1653 26.0355 24.5487 27.5334 27.0521 27.5334C28.2567 27.5334 29.2542 27.2493 29.9695 26.8447V25.3812C29.9695 24.9364 29.9961 24.7571 30.5843 24.7097V24.2276H27.5132V24.7097C28.219 24.7356 28.4637 24.8475 28.4637 25.3812V26.5692C28.172 26.7931 27.8143 26.8963 27.2309 26.8963C25.5651 26.8963 24.8122 25.5275 24.8122 23.9005C24.8122 22.5059 25.4051 21.2576 26.9956 21.2576C28.1155 21.2576 28.7366 21.7655 29.1036 22.8072H29.7812L29.7436 21.3092C29.1978 20.9477 28.3414 20.6463 27.1273 20.6463C24.9252 20.6463 23.1653 22.0238 23.1653 24.219ZM34.1884 26.9566C33.2944 26.9566 32.8238 26.1129 32.8238 24.8905C32.8238 23.9521 33.125 23.2893 33.8967 23.2893C34.7813 23.2893 35.2519 24.1329 35.2519 25.3554C35.2519 26.3023 34.9601 26.9566 34.1884 26.9566ZM33.9437 27.5334C35.5154 27.5334 36.7388 26.5692 36.7388 25.0368C36.7388 23.7111 35.7036 22.7125 34.1319 22.7125C32.5603 22.7125 31.3369 23.6766 31.3369 25.209C31.3369 26.5434 32.3721 27.5334 33.9437 27.5334ZM39.2886 21.2231L39.3357 20.4742H38.9875L37.2841 20.8616V21.1198L37.8958 21.4814V26.509C37.8958 26.905 37.6699 26.948 37.237 26.9997V27.4473H39.9568V26.9997C39.5239 26.948 39.2886 26.905 39.2886 26.509V21.2231ZM43.3358 23.272C43.9569 23.272 44.3898 23.5992 44.3898 24.2276V26.3109C44.1169 26.5348 43.7781 26.6639 43.364 26.6639C42.4229 26.6639 41.9711 25.9322 41.9711 24.9594C41.9711 23.9177 42.4887 23.272 43.3358 23.272ZM46.4697 27.2407V26.7758L46.2344 26.7672C45.8767 26.75 45.7826 26.6295 45.7826 26.3368V21.2231L45.8297 20.4742H45.4815L43.7781 20.8616V21.1198L44.3898 21.4814V23.0052C44.098 22.8244 43.7028 22.7125 43.2134 22.7125C41.7359 22.7125 40.5218 23.7197 40.5218 25.3381C40.5218 26.6381 41.3312 27.5334 42.7146 27.5334C43.4581 27.5334 44.0322 27.1977 44.3898 26.7156L44.3428 27.5334H44.6156L46.4697 27.2407ZM52.7686 22.7986H49.2583V22.3423C49.2583 21.4384 49.5123 20.9735 50.1994 20.9735C50.6511 20.9735 50.8488 21.2231 50.8488 21.6536V21.9979H51.8934C52.1381 21.886 52.251 21.6536 52.251 21.4125C52.251 20.8616 51.6957 20.4742 50.4629 20.4742C48.8536 20.4742 47.8654 21.2576 47.8654 22.5489V22.6608L47.1408 22.9707V23.3581H47.8654V26.509C47.8654 26.905 47.6396 26.948 47.2066 26.9997V27.4473H50.0017V26.9997C49.4653 26.9394 49.2583 26.905 49.2583 26.4917V23.3581H51.3193V26.509C51.3193 26.905 51.0934 26.948 50.6605 26.9997V27.4473H53.3803V26.9997C52.9474 26.948 52.7215 26.905 52.7215 26.509V23.6336L52.7686 22.7986ZM58.1697 26.509C58.1697 26.905 57.9437 26.948 57.511 26.9997V27.4473H60.231V26.9997C59.7978 26.948 59.5624 26.905 59.5624 26.509V24.1243C59.5624 23.1429 58.9131 22.7125 57.9816 22.7125C57.2005 22.7125 56.5229 23.1429 56.1088 23.5561L56.1559 22.6952H55.8077L54.1043 23.1429V23.4012L54.716 23.8058V26.509C54.716 26.905 54.4901 26.948 54.0572 26.9997V27.4473H56.777V26.9997C56.3441 26.948 56.1088 26.905 56.1088 26.509V23.9435C56.4382 23.7541 56.9276 23.5905 57.3697 23.5905C57.9063 23.5905 58.1697 23.78 58.1697 24.2879V26.509ZM61.9604 24.7872C61.9604 23.8144 62.4877 23.272 63.2311 23.272C63.843 23.272 64.0311 23.625 64.0311 24.1502V24.5117H64.9345C65.1698 24.4256 65.3298 24.2104 65.3298 23.9005C65.3298 23.1773 64.5391 22.7125 63.429 22.7125C61.8477 22.7125 60.6618 23.7197 60.6618 25.2693C60.6618 26.5434 61.5651 27.5334 63.1277 27.5334C64.4077 27.5334 65.1324 26.9136 65.4332 26.0699L65.0757 25.9064C64.7557 26.2679 64.2945 26.552 63.6171 26.552C62.5158 26.552 61.9604 25.8719 61.9604 24.7872ZM66.4946 21.4814V26.509C66.4946 26.905 66.2686 26.948 65.8354 26.9997V27.4473H68.546V26.9997C68.1133 26.948 67.8873 26.905 67.8873 26.509V23.9435C68.2073 23.7541 68.706 23.5905 69.1387 23.5905C69.6753 23.5905 69.9481 23.78 69.9481 24.2879V26.509C69.9481 26.905 69.7221 26.948 69.2894 26.9997V27.4473H72V26.9997C71.5668 26.948 71.3408 26.905 71.3408 26.509V24.1243C71.3408 23.1429 70.6821 22.7125 69.7507 22.7125C68.9787 22.7125 68.3013 23.1429 67.8873 23.5561V21.2231L67.9341 20.4742H67.586L65.8826 20.8616V21.1198L66.4946 21.4814Z" fill="black"/>
</svg>
