<svg width="80" height="48" viewBox="0 0 80 48" fill="none" xmlns="http://www.w3.org/2000/svg">
<g clip-path="url(#clip0_41_356)">
<mask id="mask0_41_356" style="mask-type:luminance" maskUnits="userSpaceOnUse" x="24" y="14" width="32" height="20">
<path d="M55.1894 14.4H24.8198V33.6H55.1894V14.4Z" fill="white"/>
</mask>
<g mask="url(#mask0_41_356)">
<path d="M36.2012 33.5891H38.516V18.4931L36.2012 22.4637V33.5891Z" fill="#150F0F"/>
<path d="M35.5691 14.4173L30.5103 23.0947V24.8855V26.0209H30.5104H32.8251H32.8252V23.6692L36.201 17.8788V17.8943L38.2281 14.4173H35.5691Z" fill="#150F0F"/>
<path d="M44.3544 18.6541L47.2787 23.67V26.0214H49.5936V23.0716L46.055 17.0021C46.0578 17.0008 46.0607 16.9996 46.0635 16.9983L44.9169 15.0317C44.2089 15.3853 43.5828 15.8734 43.0747 16.4623L44.3536 18.6559C44.3538 18.6553 44.3542 18.6547 44.3544 18.6541Z" fill="#150F0F"/>
<path d="M49.2709 14.4H47.601C47.473 14.4 47.3461 14.4054 47.2202 14.4133L48.5303 16.6606H49.2709C51.258 16.6606 52.8746 18.2392 52.8746 20.1796V27.8205C52.8746 29.7609 51.258 31.3394 49.2709 31.3394H47.601C45.6139 31.3394 43.9975 29.7609 43.9975 27.8205V22.6139L41.8311 18.898C41.735 19.3106 41.6826 19.7391 41.6826 20.1796V27.8205C41.6826 31.0073 44.3376 33.6 47.601 33.6H49.2709C52.5343 33.6 55.1893 31.0073 55.1893 27.8205V20.1796C55.1893 16.9928 52.5343 14.4 49.2709 14.4Z" fill="#150F0F"/>
<path d="M27.7801 14.4173H24.8198V33.5887H27.1346V17.8791L29.011 21.0975L30.3428 18.8131L27.7801 14.4173Z" fill="#150F0F"/>
</g>
</g>
<defs>
<clipPath id="clip0_41_356">
<rect width="30.4" height="19.2" fill="white" transform="translate(24.7998 14.4)"/>
</clipPath>
</defs>
</svg>
