<svg width="80" height="48" viewBox="0 0 80 48" fill="none" xmlns="http://www.w3.org/2000/svg">
<g clip-path="url(#clip0_41_414)">
<path d="M42.9363 20.2833L40.8319 25.5276L38.7061 20.2833H36.5264V27.8589H38.3714V23.3052L40.0762 27.8589H41.5653L43.2598 23.3153V27.8589H45.1049V20.2833H42.9363Z" fill="#303237"/>
<path d="M46.4263 20.2833V27.8589H48.2713V20.2833H46.4263Z" fill="#303237"/>
<path d="M52.4057 20.2833H49.5669V27.8589H52.4057C54.8225 27.8589 56.3766 26.3159 56.3766 24.0711C56.3766 21.8263 54.8225 20.2833 52.4057 20.2833ZM52.2867 26.262H51.413V21.8588H52.2867C53.6792 21.8588 54.499 22.6786 54.499 24.0711C54.499 25.4635 53.6792 26.262 52.2867 26.262Z" fill="#303237"/>
<path d="M61.2114 20.2833H59.0751L56.334 27.8589H58.2655L58.7182 26.5204H61.5457L61.9994 27.8589H63.9525L61.2114 20.2833ZM59.2044 25.0963L60.132 22.3226L61.0705 25.0963H59.2044Z" fill="#303237"/>
<path d="M66.0864 22.3451C66.0864 21.8701 66.4211 21.6433 66.8636 21.6545C67.3602 21.6646 67.7047 21.9565 67.7373 22.4417H69.7338C69.6578 20.9954 68.5472 20.1755 66.8953 20.1755C65.2433 20.1755 64.1328 20.974 64.1328 22.4092C64.1113 25.0964 67.8991 24.3407 67.8991 25.7444C67.8991 26.1868 67.5541 26.4563 67.0142 26.4563C66.4742 26.4563 66.1292 26.1756 66.0751 25.5928H64.1113C64.1654 27.1256 65.4387 27.9343 67.0683 27.9343C68.8381 27.9343 69.8308 26.8774 69.8308 25.604C69.8308 23.0672 66.0864 23.6612 66.0864 22.3451Z" fill="#303237"/>
<path fill-rule="evenodd" clip-rule="evenodd" d="M13.4621 20.5695L10.2714 18.7463C10.1013 18.6491 9.88965 18.7719 9.88965 18.9678V26.9078C9.88965 27.0909 9.98778 27.2601 10.1468 27.3509L16.6527 31.0686C16.8228 31.1658 17.0345 31.0429 17.0345 30.847V27.0764L13.4621 24.9074V20.5695Z" fill="url(#paint0_linear_41_414)" fill-opacity="0.5"/>
<path fill-rule="evenodd" clip-rule="evenodd" d="M24.1792 27.0764V30.847C24.1792 31.0429 24.3908 31.1658 24.561 31.0686L31.0669 27.3509C31.2259 27.2601 31.324 27.0909 31.324 26.9078V18.9678C31.324 18.7719 31.1124 18.6491 30.9422 18.7463L27.7516 20.5695V24.9074L24.1792 27.0764Z" fill="url(#paint1_linear_41_414)" fill-opacity="0.5"/>
<path d="M13.4619 16.9264C13.4619 16.7305 13.6736 16.6077 13.8437 16.7049L20.4801 20.4972C20.5586 20.542 20.6549 20.542 20.7334 20.4972L27.3698 16.7049C27.5399 16.6077 27.7516 16.7305 27.7516 16.9264V24.9074L20.7392 29.165C20.6578 29.2144 20.5557 29.2144 20.4743 29.165L13.4619 24.9074V16.9264Z" fill="#3864FF"/>
<path d="M13.4619 16.9264C13.4619 16.7305 13.6736 16.6077 13.8437 16.7049L20.4801 20.4972C20.5586 20.542 20.6549 20.542 20.7334 20.4972L27.3698 16.7049C27.5399 16.6077 27.7516 16.7305 27.7516 16.9264V24.9074L20.7392 29.165C20.6578 29.2144 20.5557 29.2144 20.4743 29.165L13.4619 24.9074V16.9264Z" fill="url(#paint2_linear_41_414)"/>
</g>
<defs>
<linearGradient id="paint0_linear_41_414" x1="9.88965" y1="24.9074" x2="17.0345" y2="24.9074" gradientUnits="userSpaceOnUse">
<stop stop-color="#3864FF"/>
<stop offset="1" stop-color="#3894FF"/>
</linearGradient>
<linearGradient id="paint1_linear_41_414" x1="24.1792" y1="24.9074" x2="31.324" y2="24.9074" gradientUnits="userSpaceOnUse">
<stop stop-color="#3864FF"/>
<stop offset="1" stop-color="#3894FF"/>
</linearGradient>
<linearGradient id="paint2_linear_41_414" x1="13.4619" y1="22.866" x2="27.7516" y2="22.866" gradientUnits="userSpaceOnUse">
<stop stop-color="#3864FF"/>
<stop offset="1" stop-color="#3894FF"/>
</linearGradient>
<clipPath id="clip0_41_414">
<rect width="60.2207" height="14.8" fill="white" transform="translate(9.88965 16.4)"/>
</clipPath>
</defs>
</svg>
