<svg width="80" height="48" viewBox="0 0 80 48" fill="none" xmlns="http://www.w3.org/2000/svg">
<g clip-path="url(#clip0_41_470)">
<mask id="mask0_41_470" style="mask-type:luminance" maskUnits="userSpaceOnUse" x="4" y="18" width="72" height="12">
<path d="M75.5999 18.4H4.3999V29.4237H75.5999V18.4Z" fill="white"/>
</mask>
<g mask="url(#mask0_41_470)">
<path d="M8.52015 21.0643H5.52783L8.52015 18.4V21.0643Z" fill="#FFD60F"/>
<path d="M13.1036 21.5803V29.4236H12.2437V23.6212L8.75179 27.0545L5.25981 23.6212V29.4236H4.3999V21.5805L8.75179 25.859L13.1036 21.5803Z" fill="#FFD60F"/>
<path d="M11.4908 26.7307V25.5349L8.75176 28.2278L6.0127 25.5349V26.7307L8.75176 29.4237L11.4908 26.7307Z" fill="#FFD60F"/>
<path d="M8.52005 21.5195H5.49463L8.52005 24.6136V21.5195Z" fill="#FFD60F"/>
<path d="M11.9757 21.0643H8.9834V18.4L11.9757 21.0643Z" fill="#FFD60F"/>
<path d="M8.9834 24.6136L12.0088 21.5195H8.9834V24.6136Z" fill="#FFD60F"/>
<path d="M71.7856 23.7013H73.184V27.8626H74.1367V23.7013H75.5348V22.8094H71.7856V23.7013Z" fill="#010101"/>
<path d="M19.5264 25.4928L16.6994 22.81L16.6914 27.8631H17.6441V24.8683L19.5264 26.7853L21.4087 24.8683V27.8631H22.3533V22.81L19.5264 25.4928Z" fill="#010101"/>
<path d="M24.6077 22.81H23.6631V27.8631H24.6077V22.81Z" fill="#010101"/>
<path d="M26.8604 24.7866V27.8631H25.9077V22.8174L29.785 26.1317V22.81H30.7301V28.1009L26.8604 24.7866Z" fill="#010101"/>
<path d="M35.7361 22.81H32.04V27.8636H35.7361V27.0609H32.9846V25.701H35.3656V24.8909H32.9846V23.6127H35.7361V22.81Z" fill="#010101"/>
<path fill-rule="evenodd" clip-rule="evenodd" d="M36.7954 22.81H39.055C40.2572 22.81 40.9068 23.6792 40.9068 24.5858C40.9068 25.3142 40.5214 25.953 39.8337 26.2134L41.0056 27.8557H39.9017L38.8283 26.3546L37.7401 26.362V27.8631H36.7954V22.81ZM37.7401 25.5445H39.002C39.5238 25.5445 39.9698 25.136 39.9698 24.5858C39.9698 24.0207 39.5238 23.627 39.002 23.627H37.7401V25.5445Z" fill="#010101"/>
<path fill-rule="evenodd" clip-rule="evenodd" d="M42.8055 26.9787H45.4513L45.9423 27.8631H46.9855L44.1287 22.81L41.271 27.8631L42.3142 27.8705L42.8055 26.9787ZM44.1287 24.6084L44.9677 26.1464H43.282L44.1287 24.6084Z" fill="#010101"/>
<path d="M48.4005 22.81V26.9713H51.0458V27.8631H47.4556V22.81H48.4005Z" fill="#010101"/>
<path d="M54.154 22.81H53.1113L55.9303 27.8631L58.7572 22.81H57.7143L55.9303 26.0574L54.154 22.81Z" fill="#010101"/>
<path fill-rule="evenodd" clip-rule="evenodd" d="M61.5096 26.9787H58.8638L58.3728 27.8705L57.3296 27.8631L60.187 22.81L63.0438 27.8631H62.0006L61.5096 26.9787ZM61.026 26.1464L60.187 24.6084L59.3406 26.1464H61.026Z" fill="#010101"/>
<path d="M63.1816 22.8174V25.9087C63.1816 27.0678 63.9825 27.9522 65.2225 27.9522C66.4546 27.9522 67.256 27.0678 67.256 25.9087V22.8174H66.3264V25.9087C66.3264 26.5554 65.9254 27.0235 65.2151 27.0235C64.5117 27.0235 64.1112 26.5549 64.1112 25.9087V22.8174H63.1816Z" fill="#010101"/>
<path d="M69.5322 22.81V26.9713H72.1774V27.8631H68.5869V22.81H69.5322Z" fill="#010101"/>
</g>
</g>
<defs>
<clipPath id="clip0_41_470">
<rect width="71.2" height="11.2" fill="white" transform="translate(4.3999 18.4)"/>
</clipPath>
</defs>
</svg>
