<svg width="80" height="48" viewBox="0 0 80 48" fill="none" xmlns="http://www.w3.org/2000/svg">
<g clip-path="url(#clip0_41_395)">
<path fill-rule="evenodd" clip-rule="evenodd" d="M10.0933 22.1387V24.375C10.0933 24.4949 10.1734 24.5819 10.2935 24.5819C10.4173 24.5819 10.5229 24.4762 10.6621 24.3369C10.6693 24.3297 10.6766 24.3224 10.684 24.315L14.2285 20.8668C15.0996 20.0273 15.9407 19.6 16.8418 19.6C18.2837 19.6 19.365 20.607 19.365 22.0662V24.282C19.365 25.7613 18.1134 26.8707 16.6916 26.8707H14.599V24.5819H16.6215C16.7717 24.5819 16.8718 24.4819 16.8718 24.332V22.1062C16.8718 21.9862 16.7917 21.8888 16.6716 21.8888C16.5556 21.8888 16.4556 21.9899 16.3289 22.118C16.3133 22.1337 16.2975 22.1498 16.2811 22.1661L12.7366 25.6143C11.8655 26.4539 11.0344 26.8707 10.1233 26.8707C8.68147 26.8707 7.6001 25.8742 7.6001 24.415V22.1786C7.6001 20.7094 8.85168 19.6 10.2835 19.6H12.3661V21.8888H10.3436C10.1934 21.8888 10.0933 21.9887 10.0933 22.1387ZM60.2051 24.7591C59.6343 24.8391 59.364 25.0489 59.364 25.4088C59.364 25.7986 59.6443 25.9785 60.1049 25.9785C60.7457 25.9785 61.1963 25.6086 61.1963 25.0489V24.6392L60.2051 24.7591ZM37.1158 22.9101C36.3548 22.9101 35.9543 23.5397 35.9543 24.3893C35.9543 25.2588 36.3949 25.8286 37.1359 25.8286C37.8267 25.8286 38.2773 25.2688 38.2773 24.3893C38.2773 23.5097 37.8768 22.9101 37.1158 22.9101ZM70.5581 23.8096C70.5378 23.1999 70.1473 22.7901 69.5065 22.7901C68.8257 22.7901 68.4555 23.1899 68.3757 23.8096H70.5581ZM43.7041 23.8096C43.6841 23.1999 43.2936 22.7901 42.6528 22.7901C41.972 22.7901 41.6014 23.1899 41.5213 23.8096H43.7041ZM47.1184 26.888H45.7067V21.8506H47.0083V22.7002H47.0184C47.1385 22.1604 47.539 21.8506 48.1698 21.8506H48.9408V23.05H47.9996C47.3988 23.05 47.1184 23.3698 47.1184 24.0095V26.888ZM33.8817 26.888H32.59V26.3783H32.5801C32.2296 26.808 31.779 27.0379 31.1483 27.0379C29.9667 27.0379 29.2859 26.2783 29.2859 25.0589V21.8506H30.6777V24.859C30.6777 25.4787 30.928 25.8086 31.5187 25.8086C32.1094 25.8086 32.4799 25.3788 32.4799 24.7291V21.8506H33.8817V26.888ZM71.9101 25.3888C71.6794 26.3383 70.8788 27.0379 69.5869 27.0379C67.9548 27.0379 66.9836 25.8985 66.9836 24.3493C66.9836 22.8001 68.015 21.7107 69.497 21.7107C71.1089 21.7107 72.0001 22.8101 72.0001 24.4792C72.0001 24.5692 72.0001 24.7091 71.99 24.8191H68.3757C68.4555 25.5187 68.8758 25.9185 69.5869 25.9185C70.0675 25.9185 70.3679 25.7086 70.508 25.3888H71.9101ZM61.3765 26.3483C61.0961 26.758 60.6255 27.0279 59.8546 27.0279C58.7331 27.0279 57.9822 26.4782 57.9822 25.4487C57.9822 24.4193 58.7532 23.9395 59.9147 23.8096L61.1963 23.6697V23.4498C61.1963 23 60.9359 22.7701 60.3653 22.7701C59.7945 22.7701 59.5342 22.97 59.4841 23.4098H58.1625C58.2325 22.4203 58.9334 21.7107 60.4253 21.7107C61.8271 21.7107 62.5179 22.3603 62.5179 23.5297V25.6686C62.5179 25.7586 62.558 25.8086 62.6481 25.8086H63.0487V26.888H61.9773C61.6368 26.888 61.4366 26.6781 61.3865 26.3483H61.3765ZM53.6267 25.3688C53.6267 26.4282 52.7455 27.0379 51.4339 27.0379C50.0122 27.0379 49.1711 26.4083 49.101 25.3188H50.4827C50.5428 25.7986 50.8932 25.9885 51.4539 25.9885C51.9746 25.9885 52.285 25.7886 52.285 25.4687C52.285 25.1489 51.9546 25.029 51.504 24.959L50.703 24.8391C49.862 24.7091 49.2612 24.2594 49.2612 23.3398C49.2612 22.2704 50.1323 21.7107 51.3539 21.7107C52.6856 21.7107 53.4565 22.2904 53.5365 23.3498H52.2049C52.1649 22.9001 51.8545 22.7501 51.3338 22.7501C50.8632 22.7501 50.5628 22.92 50.5628 23.2399C50.5628 23.5297 50.8732 23.6397 51.3338 23.7196L52.1748 23.8496C53.0059 23.9795 53.6267 24.4493 53.6267 25.3688ZM45.0559 25.3888C44.8256 26.3383 44.0246 27.0379 42.733 27.0379C41.1008 27.0379 40.1296 25.8985 40.1296 24.3493C40.1296 22.8001 41.1609 21.7107 42.6428 21.7107C44.2548 21.7107 45.1459 22.8101 45.1459 24.4792C45.1459 24.5692 45.1459 24.7091 45.136 24.8191H41.5213C41.6014 25.5187 42.022 25.9185 42.733 25.9185C43.2135 25.9185 43.5139 25.7086 43.654 25.3888H45.0559ZM35.9844 28.627H34.5726V21.8506H35.8742V22.4103H35.8843C36.2146 21.9905 36.7253 21.7107 37.4062 21.7107C38.7879 21.7107 39.7091 22.7501 39.7091 24.3693C39.7091 25.9885 38.7779 27.0379 37.4162 27.0379C36.7653 27.0379 36.2847 26.808 35.9944 26.4083H35.9844V28.627ZM66.7032 26.888H65.4016C64.5004 26.888 64.0899 26.5282 64.0899 25.5887V22.99H62.8784V21.8506H64.0899V20.4413H65.4817V21.8506H66.6932V22.99H65.4817V25.2888C65.4817 25.5787 65.5918 25.7186 65.9022 25.7186H66.7032V26.888ZM57.6218 26.888H56.3201C55.4189 26.888 55.0085 26.5282 55.0085 25.5887V22.99H53.7969V21.8506H55.0085V20.4413H56.4002V21.8506H57.6118V22.99H56.4002V25.2888C56.4002 25.5787 56.5103 25.7186 56.8207 25.7186H57.6218V26.888ZM28.6951 24.7491C28.6951 26.1883 27.5837 27.0479 25.9216 27.0479C24.0593 27.0479 22.9378 26.1783 22.9179 24.6492H24.4197C24.4698 25.4088 24.9904 25.7886 25.9016 25.7886C26.6125 25.7886 27.1732 25.4787 27.1732 24.889C27.1732 24.3893 26.8228 24.1594 26.1119 24.0195L25.1506 23.8296C23.8991 23.5797 23.1281 23.03 23.1281 21.8106C23.1281 20.4513 24.1794 19.6717 25.8215 19.6717C27.4636 19.6717 28.4949 20.4613 28.555 21.8506H27.073C27.033 21.2509 26.5124 20.9111 25.8115 20.9111C25.1105 20.9111 24.64 21.2309 24.64 21.6807C24.64 22.1305 24.9504 22.3304 25.6612 22.4703L26.6025 22.6502C27.8941 22.9001 28.6951 23.4698 28.6951 24.7491Z" fill="#090A0A"/>
</g>
<defs>
<clipPath id="clip0_41_395">
<rect width="64.4" height="9.08026" fill="white" transform="translate(7.6001 19.6)"/>
</clipPath>
</defs>
</svg>
