<svg width="32" height="32" viewBox="0 0 32 32" fill="none" xmlns="http://www.w3.org/2000/svg">
<path d="M20.1424 0.843089L16.9853 0L14.3248 9.89568L11.9228 0.961793L8.76555 1.80488L11.3608 11.4573L4.8967 5.01519L2.58549 7.31855L9.67576 14.3848L0.845959 12.0269L0 15.1733L9.64767 17.7496C9.53721 17.2748 9.47877 16.7801 9.47877 16.2718C9.47877 12.6737 12.4055 9.75688 16.0159 9.75688C19.6262 9.75688 22.5529 12.6737 22.5529 16.2718C22.5529 16.7768 22.4952 17.2685 22.3861 17.7405L31.1541 20.0819L32 16.9355L22.314 14.3489L31.1444 11.9908L30.2984 8.8444L20.6128 11.4308L27.0768 4.98875L24.7656 2.68539L17.7737 9.6536L20.1424 0.843089Z" fill="#28A29C"/>
<path d="M22.3769 17.7771C22.1062 18.9176 21.5348 19.9422 20.7507 20.7631L27.1026 27.0936L29.4139 24.7902L22.3769 17.7771Z" fill="#28A29C"/>
<path d="M20.6865 20.8292C19.893 21.637 18.8901 22.2398 17.7655 22.5504L20.0769 31.1473L23.234 30.3041L20.6865 20.8292Z" fill="#28A29C"/>
<path d="M17.6476 22.5819C17.1258 22.7156 16.5789 22.7866 16.0153 22.7866C15.4115 22.7866 14.8268 22.705 14.2717 22.5523L11.9582 31.157L15.1154 32L17.6476 22.5819Z" fill="#28A29C"/>
<path d="M14.1601 22.5206C13.0526 22.1945 12.0676 21.584 11.2902 20.7739L4.92263 27.1199L7.23384 29.4233L14.1601 22.5206Z" fill="#28A29C"/>
<path d="M11.2378 20.7178C10.4737 19.9026 9.91721 18.8918 9.65231 17.7689L0.855739 20.1179L1.70169 23.2643L11.2378 20.7178Z" fill="#28A29C"/>
</svg>
