<svg width="32" height="32" viewBox="0 0 32 32" fill="none" xmlns="http://www.w3.org/2000/svg">
<g clip-path="url(#clip0_25_551)">
<mask id="mask0_25_551" style="mask-type:luminance" maskUnits="userSpaceOnUse" x="0" y="0" width="32" height="32">
<path d="M32 0H0V32H32V0Z" fill="white"/>
</mask>
<g mask="url(#mask0_25_551)">
<path d="M16 32C24.8366 32 32 24.8366 32 16C32 7.16344 24.8366 0 16 0C7.16344 0 0 7.16344 0 16C0 24.8366 7.16344 32 16 32Z" fill="#34C759"/>
<path d="M11.8589 31.4549C17.9938 33.0987 24.8211 27.512 27.1081 18.9765C29.3952 10.441 26.276 2.1891 20.1411 0.545267C14.0062 -1.09856 7.17892 4.4882 4.89185 13.0237C2.60478 21.5591 5.72404 29.8111 11.8589 31.4549Z" fill="black" fill-opacity="0.2"/>
<path fill-rule="evenodd" clip-rule="evenodd" d="M10.1414 16.7303L8.37423 23.3103H17.3258C20.5196 23.3103 22.8812 20.9487 22.8812 17.9348C22.8812 16.7203 22.3864 16.0005 21.4418 15.4832L21.5092 15.2133C23.466 14.5836 24.5906 12.9867 24.5906 10.94C24.5906 9.02822 23.376 7.56628 20.6546 7.56628H12.6026L10.8663 14.0313H6.74727L6.02246 16.7303H10.1414ZM13.9944 16.7303L13.1874 19.7341H17.4607C18.5628 19.7341 19.3726 18.8345 19.3726 17.7324C19.3726 17.0576 18.9227 16.7203 18.1355 16.7203H16.0812V16.7303H13.9944ZM18.7203 14.0213H14.7168L15.504 11.1424H19.4626C20.1822 11.1424 20.6095 11.5023 20.6095 12.1545C20.6095 13.2116 19.8674 14.0213 18.7203 14.0213Z" fill="url(#paint0_linear_25_551)"/>
<mask id="mask1_25_551" style="mask-type:luminance" maskUnits="userSpaceOnUse" x="6" y="7" width="19" height="17">
<path fill-rule="evenodd" clip-rule="evenodd" d="M10.1414 16.7303L8.37423 23.3103H17.3258C20.5196 23.3103 22.8812 20.9487 22.8812 17.9348C22.8812 16.7203 22.3864 16.0005 21.4418 15.4832L21.5092 15.2133C23.466 14.5836 24.5906 12.9867 24.5906 10.94C24.5906 9.02822 23.376 7.56628 20.6546 7.56628H12.6026L10.8663 14.0313H6.74727L6.02246 16.7303H10.1414ZM13.9944 16.7303L13.1874 19.7341H17.4607C18.5628 19.7341 19.3726 18.8345 19.3726 17.7324C19.3726 17.0576 18.9227 16.7203 18.1355 16.7203H16.0812V16.7303H13.9944ZM18.7203 14.0213H14.7168L15.504 11.1424H19.4626C20.1822 11.1424 20.6095 11.5023 20.6095 12.1545C20.6095 13.2116 19.8674 14.0213 18.7203 14.0213Z" fill="white"/>
</mask>
<g mask="url(#mask1_25_551)">
<path d="M8.37431 23.31L8.13285 23.2452L8.04831 23.56H8.37431V23.31ZM10.1415 16.73L10.3829 16.795L10.4675 16.48H10.1415V16.73ZM21.4418 15.483L21.1993 15.4224L21.1525 15.6096L21.3217 15.7023L21.4418 15.483ZM21.5093 15.2131L21.4326 14.9751L21.3005 15.0178L21.2668 15.1524L21.5093 15.2131ZM12.6027 7.56604V7.31604H12.411L12.3612 7.50119L12.6027 7.56604ZM10.8664 14.0311V14.2811H11.0581L11.1078 14.0959L10.8664 14.0311ZM6.74735 14.0311V13.7811H6.55564L6.50591 13.9663L6.74735 14.0311ZM6.02253 16.73L5.78109 16.6652L5.69653 16.98H6.02253V16.73ZM13.9945 16.73V16.48H13.8028L13.753 16.6652L13.9945 16.73ZM13.1875 19.7339L12.946 19.6691L12.8614 19.9839H13.1875V19.7339ZM16.0813 16.72V16.47H15.8313V16.72H16.0813ZM16.0813 16.73V16.98H16.3313V16.73H16.0813ZM14.7169 14.0211L14.4757 13.9551L14.3893 14.2711H14.7169V14.0211ZM15.5041 11.1422V10.8922H15.3133L15.2629 11.0762L15.5041 11.1422ZM8.61575 23.3748L10.3829 16.795L9.90004 16.6652L8.13285 23.2452L8.61575 23.3748ZM17.3258 23.06H8.37431V23.56H17.3258V23.06ZM22.6313 17.9346C22.6313 20.805 20.387 23.06 17.3258 23.06V23.56C20.6522 23.56 23.1313 21.0919 23.1313 17.9346H22.6313ZM21.3217 15.7023C21.7672 15.9463 22.0893 16.2283 22.3024 16.5775C22.515 16.9262 22.6313 17.362 22.6313 17.9346H23.1313C23.1313 17.2926 23.0001 16.7614 22.7292 16.3171C22.4586 15.8735 22.061 15.5371 21.5618 15.2638L21.3217 15.7023ZM21.2668 15.1524L21.1993 15.4224L21.6844 15.5436L21.7518 15.2738L21.2668 15.1524ZM24.3406 10.9397C24.3406 12.8812 23.283 14.3796 21.4326 14.9751L21.5858 15.4511C23.6492 14.7871 24.8406 13.0917 24.8406 10.9397H24.3406ZM20.6546 7.81604C21.9718 7.81604 22.8874 8.16935 23.4721 8.71824C24.0553 9.2658 24.3406 10.0374 24.3406 10.9397H24.8406C24.8406 9.93031 24.5186 9.01507 23.8142 8.35372C23.1113 7.69369 22.0588 7.31604 20.6546 7.31604V7.81604ZM12.6027 7.81604H20.6546V7.31604H12.6027V7.81604ZM11.1078 14.0959L12.8441 7.63088L12.3612 7.50119L10.6249 13.9663L11.1078 14.0959ZM6.74735 14.2811H10.8664V13.7811H6.74735V14.2811ZM6.26397 16.795L6.9888 14.0959L6.50591 13.9663L5.78109 16.6652L6.26397 16.795ZM10.1415 16.48H6.02253V16.98H10.1415V16.48ZM13.753 16.6652L12.946 19.6691L13.4289 19.7988L14.2358 16.795L13.753 16.6652ZM13.1875 19.9839H17.4608V19.4839H13.1875V19.9839ZM17.4608 19.9839C18.7158 19.9839 19.6226 18.957 19.6226 17.7322H19.1226C19.1226 18.7115 18.41 19.4839 17.4608 19.4839V19.9839ZM19.6226 17.7322C19.6226 17.3348 19.487 17.0031 19.2054 16.7779C18.9333 16.5602 18.5596 16.47 18.1356 16.47V16.97C18.4988 16.97 18.7436 17.0487 18.8932 17.1683C19.0332 17.2804 19.1226 17.4547 19.1226 17.7322H19.6226ZM18.1356 16.47H16.0813V16.97H18.1356V16.47ZM15.8313 16.72V16.73H16.3313V16.72H15.8313ZM16.0813 16.48H13.9945V16.98H16.0813V16.48ZM14.7169 14.2711H18.7204V13.7711H14.7169V14.2711ZM15.2629 11.0762L14.4757 13.9551L14.958 14.087L15.7452 11.2081L15.2629 11.0762ZM19.4626 10.8922H15.5041V11.3922H19.4626V10.8922ZM20.8596 12.1543C20.8596 11.7707 20.7318 11.4431 20.4702 11.2152C20.2138 10.9917 19.861 10.8922 19.4626 10.8922V11.3922C19.7838 11.3922 20.0046 11.4726 20.1417 11.5921C20.2738 11.7072 20.3596 11.8856 20.3596 12.1543H20.8596ZM18.7204 14.2711C19.3549 14.2711 19.8934 14.0458 20.2734 13.6594C20.6525 13.2738 20.8596 12.7422 20.8596 12.1543H20.3596C20.3596 12.6235 20.1957 13.0253 19.9169 13.3088C19.6389 13.5915 19.2328 13.7711 18.7204 13.7711V14.2711Z" fill="white"/>
</g>
</g>
</g>
<defs>
<linearGradient id="paint0_linear_25_551" x1="15.3066" y1="7.56628" x2="15.3066" y2="23.3103" gradientUnits="userSpaceOnUse">
<stop stop-color="white"/>
<stop offset="1" stop-color="#E4F0FE"/>
</linearGradient>
<clipPath id="clip0_25_551">
<rect width="32" height="32" rx="16" fill="white"/>
</clipPath>
</defs>
</svg>
