<svg width="32" height="32" viewBox="0 0 32 32" fill="none" xmlns="http://www.w3.org/2000/svg">
<g clip-path="url(#clip0_22_384)">
<rect width="32" height="32" rx="16" fill="#17364B"/>
<path d="M12.1076 11.5454C13.3796 11.2497 14.6714 11.3045 15.9673 11.3067L19.563 11.3108L32 11.3112V13.3417C27.8362 13.3404 23.6724 13.3606 19.5088 13.4024L16.253 13.407C15.2227 13.4082 14.1419 13.3638 13.1295 13.5753C11.948 13.8157 10.8617 14.3936 10.0019 15.2388C8.94812 16.2951 8.35329 17.6863 8.36045 19.1821C8.36694 20.5353 8.86991 21.8269 9.83891 22.7836C10.7892 23.7218 12.0272 24.213 13.3586 24.2034C14.5429 24.1947 15.7103 23.7889 16.5484 22.9321C17.2675 22.197 17.705 21.1488 17.6924 20.1181C17.6808 19.1772 17.347 18.2675 16.6651 17.6076C16.0548 17.0169 15.1549 16.6443 14.3023 16.6586C13.4961 16.6733 12.7279 17.0045 12.1641 17.581C11.6758 18.088 11.3849 18.7448 11.4027 19.4531C11.4178 20.0543 11.6537 20.6352 12.0947 21.0498C12.4889 21.4173 13.0127 21.6137 13.5513 21.5958C13.5921 21.5941 13.6329 21.5916 13.6737 21.5884L13.7957 21.5765C14.0104 21.5318 14.2038 21.4697 14.3909 21.3531C14.7509 21.1287 14.9891 20.8031 15.085 20.3899C15.1924 20.0361 15.1383 19.6235 14.961 19.3003C14.7798 18.9675 14.4716 18.7222 14.1066 18.6203C13.7857 18.5308 13.4421 18.5765 13.1558 18.7469C13.0316 18.8212 12.9251 18.928 12.8202 19.0268C13.2725 18.8399 13.6141 18.5912 14.1258 18.8023C14.4383 18.9312 14.6868 19.204 14.812 19.5154C14.9441 19.8442 14.9345 20.1729 14.821 20.5038C14.5782 20.8797 14.3314 21.1571 13.8709 21.2578C13.8395 21.2648 13.808 21.2713 13.7764 21.2775L13.6815 21.2951C13.2113 21.2848 12.7994 21.1511 12.4479 20.8293C12.0766 20.4833 11.8558 20.0054 11.8327 19.4983C11.8106 18.9877 11.9838 18.5089 12.3322 18.1344C12.7433 17.6925 13.3486 17.4268 13.9503 17.4065C14.5876 17.385 15.2171 17.6437 15.6803 18.0771C16.217 18.5791 16.4814 19.2732 16.5045 20.0001C16.5298 20.7988 16.2826 21.5567 15.7301 22.1438C15.1225 22.7894 14.2392 23.1226 13.3623 23.1437C12.3823 23.1696 11.4325 22.8035 10.7235 22.1265C9.9531 21.3876 9.50518 20.3747 9.477 19.3078C9.44928 18.0934 9.90174 16.917 10.736 16.034C11.702 15.0298 13.0291 14.5756 14.4004 14.556C15.802 14.5359 17.0698 15.0087 18.0757 15.9943C19.1856 17.082 19.7764 18.5621 19.7896 20.1102C19.8041 21.7808 19.1348 23.3219 17.9649 24.5059C16.7088 25.7772 15.1029 26.3887 13.3295 26.3975C11.5493 26.4063 9.72405 25.7195 8.45462 24.4584C7.05107 23.0767 6.25471 21.1933 6.24122 19.2239C6.23801 17.1399 7.07288 15.014 8.55372 13.5353C9.50115 12.5892 10.7986 11.8498 12.1076 11.5454Z" fill="#F1EAE0"/>
<path d="M13.7418 21.3609C13.7258 21.3628 13.7099 21.3642 13.6942 21.3647L13.6708 21.3648C13.6786 21.365 13.6864 21.3649 13.6942 21.3647L13.7418 21.3609Z" fill="#F1EAE0"/>
<path d="M17.8738 26.0211C19.5084 25.9958 21.1469 26.0185 22.7818 26.0182L32 26.0207V28.9703C31.9792 28.934 31.9615 28.8952 31.9449 28.8557L31.8966 28.7378L31.889 28.6591C31.8436 28.2678 31.6867 27.9161 31.3788 27.6547C31.0779 27.3995 30.6816 27.2861 30.2905 27.3208C29.9147 27.3541 29.5757 27.5278 29.3341 27.8197C29.1371 28.0578 29.0128 28.3495 28.9501 28.6506C28.8541 29.1113 28.8915 29.6157 28.8927 30.0849L28.8996 31.9999H26.9925C26.9952 31.1566 27.0874 29.2129 26.9283 28.5075C26.8633 28.2192 26.7362 27.9396 26.5316 27.7231C26.2854 27.4625 25.9583 27.3407 25.6045 27.3353C25.2309 27.3296 24.8744 27.4463 24.6048 27.7139C24.4072 27.91 24.2745 28.1657 24.2073 28.4349C24.0338 29.1292 24.1312 31.1761 24.135 31.9999H22.3181C22.3037 31.2612 22.3224 30.5184 22.324 29.7793C22.325 29.3431 22.3576 28.8736 22.2647 28.4456C22.2062 28.176 22.0852 27.9147 21.8944 27.7133C21.6741 27.4809 21.3809 27.3605 21.0623 27.3541C20.7309 27.3473 20.4223 27.4591 20.1846 27.6926C19.985 27.8888 19.8564 28.1459 19.7902 28.4159C19.6189 29.1164 19.7146 31.1697 19.717 31.9999H17.8758L17.8738 26.0211Z" fill="#F1EAE0"/>
<path d="M32 8.61477C30.594 8.64336 29.1818 8.61589 27.7754 8.61513L14.5406 8.60629C13.6852 8.60531 12.8018 8.65275 11.9506 8.58909C11.7075 8.5709 11.4586 8.55415 11.2764 8.37492C11.0603 8.16222 11.0112 7.84097 11.0103 7.55038C11.0094 7.27356 10.9393 6.36953 11.1357 6.1878C11.2317 6.09905 11.4773 6.09422 11.6077 6.08949C12.3952 6.06098 13.1938 6.08984 13.9822 6.09148L32 6.08824V8.61477Z" fill="#F1EAE0"/>
<path d="M17.8841 14.3127C18.4663 14.3599 19.0672 14.3233 19.6516 14.3172C20.5623 14.3082 21.4728 14.3042 22.3835 14.305L32 14.3051V17.3548L25.3631 17.3719C24.3517 17.3757 23.216 17.4901 22.2211 17.3546C21.7699 17.2932 21.3479 17.1184 20.9515 16.8994C20.1976 16.483 19.6338 15.797 19.0134 15.2158C18.659 14.8836 18.2784 14.5954 17.8841 14.3127Z" fill="#F1EAE0"/>
<path d="M13.3271 9.76009C15.5205 9.81347 17.7261 9.77177 19.9205 9.76913L32 9.76962V10.674L20.37 10.6908C18.1995 10.69 16.0191 10.7382 13.85 10.6905C13.7209 10.33 13.5597 10.0642 13.3271 9.76009Z" fill="#F1EAE0"/>
<path d="M19.5031 24.1039C23.6677 24.1326 27.8364 24.0393 32 24.1017V24.9919C31.0712 25.0366 30.1212 24.998 29.1906 24.9983L22.3962 24.997C21.1964 24.9964 19.976 24.9491 18.7782 25.0087C19.0299 24.7152 19.2717 24.4135 19.5031 24.1039Z" fill="#F1EAE0"/>
<path d="M20.3589 22.2711L32 22.2728V23.0936C28.004 23.0529 24.0014 23.0903 20.0051 23.1045C20.1151 22.8227 20.2352 22.547 20.3589 22.2711Z" fill="#F1EAE0"/>
<path d="M23.9837 20.1595C23.8147 20.5533 23.6112 20.9156 23.2826 21.1991C23.0108 21.4335 22.6769 21.5739 22.3135 21.5414C21.8541 21.5005 21.4328 21.211 21.1458 20.8622C20.626 20.2304 20.5063 19.3157 20.5924 18.5206C20.6057 18.3975 20.6302 18.2598 20.7328 18.179C20.7887 18.1349 20.7975 18.1406 20.864 18.1478C21.0519 18.3612 20.962 18.9572 21.0094 19.2523C21.0541 19.5403 21.1312 19.8224 21.2395 20.0931C21.4143 20.5189 21.7262 21.0055 22.1712 21.1844C22.3743 21.2661 22.582 21.2627 22.7818 21.1724C23.4342 20.8781 23.6775 20.0036 23.7445 19.3556C23.7787 19.0257 23.7636 18.6477 23.8769 18.3352L23.9188 18.3191C24.1056 18.5715 24.089 19.1228 24.1483 19.4361C24.2558 20.0044 24.4856 20.7174 24.9943 21.0546C25.2031 21.1932 25.45 21.2491 25.6967 21.1981C26.4826 21.0358 26.8593 19.9955 26.9688 19.3029C27.0114 19.0336 26.9794 18.5513 27.1341 18.3345C27.1521 18.3093 27.1923 18.3107 27.2222 18.3051C27.3419 18.439 27.3323 20.0873 28.0115 20.8272C28.2084 21.0418 28.4939 21.2063 28.791 21.2152C29.6253 21.2402 30.0833 20.0508 30.1997 19.387C30.2516 19.0914 30.2293 18.7847 30.277 18.4895C30.2885 18.418 30.3022 18.3367 30.3603 18.2874C30.3778 18.2725 30.4184 18.2843 30.4412 18.2868C30.5137 18.457 30.4745 18.6781 30.4919 18.8614C30.5429 19.3989 30.6986 20.0618 30.9758 20.5314C31.2255 20.9548 31.535 21.1233 32 21.2454V21.5727C31.7868 21.5309 31.589 21.4675 31.4013 21.3572C30.885 21.0542 30.5862 20.5539 30.4397 19.9864L30.4262 20.0242C30.2227 20.587 29.8583 21.1754 29.2931 21.4329C28.995 21.5687 28.6774 21.5717 28.3723 21.4568C27.8116 21.2459 27.4025 20.7065 27.1674 20.1767C27.1629 20.187 27.1583 20.1974 27.1537 20.2077C26.9226 20.7184 26.4801 21.2962 25.9367 21.4962C25.6224 21.6118 25.282 21.5883 24.9822 21.4415C24.4745 21.193 24.1602 20.6767 23.9837 20.1595Z" fill="#F1EAE0"/>
<path d="M31.0979 18.2645C31.3984 18.2546 31.6993 18.2531 32 18.2594V20.5873C31.9181 20.5509 31.8447 20.4964 31.7757 20.4399C31.1932 19.9632 31.1608 18.953 31.0979 18.2645Z" fill="#F1EAE0"/>
<path d="M27.9251 18.3143C28.5036 18.305 29.082 18.3011 29.6605 18.3028C29.6384 18.9563 29.5432 19.5783 29.2468 20.1661C29.1974 20.2398 29.1472 20.3159 29.0868 20.3812C29.0075 20.4668 28.9121 20.5375 28.7907 20.5392C28.6897 20.5406 28.6044 20.4906 28.5333 20.4224C28.0459 19.9556 27.937 18.9451 27.9251 18.3143Z" fill="#F1EAE0"/>
<path d="M24.6872 18.3202C25.2642 18.3155 25.8413 18.3137 26.4183 18.3153C26.4196 18.9419 26.3025 19.6109 25.9922 20.1604C25.9435 20.234 25.8906 20.3022 25.8296 20.3664C25.7481 20.4521 25.6508 20.5277 25.5266 20.5268C25.4214 20.5261 25.3307 20.4667 25.2596 20.3935C24.7964 19.9159 24.6836 18.9491 24.6872 18.3202Z" fill="#F1EAE0"/>
<path d="M22.7328 18.3596L23.1473 18.3452C23.1505 18.9689 23.1244 19.7143 22.8017 20.2694C22.7391 20.3767 22.6426 20.4965 22.5146 20.5245C22.3827 20.5535 22.2988 20.4892 22.1918 20.4221C21.6726 19.866 21.6478 19.0976 21.5814 18.3801L22.7328 18.3596Z" fill="#F1EAE0"/>
<path d="M31.8966 28.7378C31.9294 28.8149 31.9584 28.8977 32 28.9703V31.9999H31.8986C31.9178 30.922 31.972 29.8117 31.8966 28.7378Z" fill="#F1EAE0"/>
</g>
<defs>
<clipPath id="clip0_22_384">
<rect width="32" height="32" rx="16" fill="white"/>
</clipPath>
</defs>
</svg>
