<svg width="24" height="24" viewBox="0 0 24 24" fill="none" xmlns="http://www.w3.org/2000/svg">
<rect width="24" height="24" rx="12" fill="url(#paint0_linear_25_473)"/>
<path d="M15.4025 4.96681C17.0573 4.93492 18.3845 6.4186 17.922 8.00783C17.862 8.21399 17.7999 8.40416 17.7365 8.5674C17.5271 9.10564 17.3183 9.38837 16.9015 9.7881C16.4912 10.1816 16.5023 10.9454 16.8312 11.4092C16.8574 11.4462 16.8813 11.4843 16.9015 11.5225C17.2298 12.1434 16.9015 13.3213 16.9015 13.3213C16.8987 13.3296 16.5376 14.4034 16.0665 14.9268C15.625 15.4172 14.6764 15.8795 14.6534 15.8906L5.92786 19.1787C5.84259 19.2106 5.74617 19.1894 5.68177 19.125C5.59659 19.0396 5.59132 18.9028 5.66907 18.8106L7.92103 16.1397C8.14153 15.8781 8.16249 15.5024 7.97278 15.2178C7.84978 15.0333 7.81234 14.8039 7.87024 14.5899L9.59095 8.22951C9.78708 7.50442 9.66699 6.7299 9.25989 6.09865C8.97831 5.66219 9.28456 5.08537 9.80384 5.07521L15.4025 4.96681ZM10.2199 14.4776C10.2199 14.4776 10.4784 14.4559 11.3761 14.4131C12.8535 14.3427 14.3314 13.6424 14.1388 12.1651C14.0565 11.5346 13.1105 11.458 13.1105 11.458L11.0538 11.3945L10.2199 14.4776ZM12.212 7.15431L11.5792 9.43166H13.0568C13.8179 9.43152 15.2307 8.69593 14.9738 7.73244C14.8273 7.18358 14.2168 7.15488 14.2033 7.15431H12.212Z" fill="white"/>
<defs>
<linearGradient id="paint0_linear_25_473" x1="0" y1="0" x2="24" y2="24" gradientUnits="userSpaceOnUse">
<stop stop-color="#9D52DB"/>
<stop offset="1" stop-color="#4424AD"/>
</linearGradient>
</defs>
</svg>
