<svg width="32" height="32" viewBox="0 0 32 32" fill="none" xmlns="http://www.w3.org/2000/svg">
<rect width="32" height="32" rx="16" fill="#008AFF"/>
<path d="M16.6315 5.45476C16.148 5.29283 15.8521 5.29283 15.3686 5.45476C14.1891 5.84978 14.2403 8.34966 14.6048 10.8161C13.682 8.49994 12.4714 6.31213 11.253 6.56252C10.7535 6.66516 10.4976 6.81367 10.1608 7.19641C9.35055 8.11687 10.6015 10.2062 12.1253 12.1337C10.1944 10.6142 8.10235 9.36781 7.18367 10.18C6.80167 10.5178 6.65372 10.774 6.55218 11.2737C6.30615 12.4843 8.46523 13.682 10.7658 14.5973C8.31579 14.2396 5.84716 14.1971 5.45482 15.3686C5.29289 15.8521 5.29289 16.1479 5.45482 16.6314C5.84716 17.8029 8.31579 17.7604 10.7658 17.4027C8.46522 18.318 6.30614 19.5156 6.55217 20.7263C6.65372 21.226 6.80166 21.4822 7.18366 21.8199C8.10233 22.6321 10.1944 21.3858 12.1252 19.8663C10.6015 21.7938 9.35053 23.8831 10.1607 24.8036C10.4976 25.1863 10.7535 25.3348 11.253 25.4374C12.4714 25.6878 13.682 23.4999 14.6048 21.1837C14.2403 23.6502 14.1891 26.1502 15.3686 26.5452C15.8521 26.7071 16.148 26.7071 16.6315 26.5452C17.811 26.1502 17.7598 23.6501 17.3953 21.1836C18.3181 23.4999 19.5287 25.6878 20.7472 25.4374C21.2466 25.3348 21.5025 25.1863 21.8394 24.8036C22.6496 23.8831 21.3986 21.7938 19.8749 19.8663C21.8057 21.3858 23.8978 22.6321 24.8165 21.8199C25.1985 21.4822 25.3464 21.226 25.4479 20.7263C25.694 19.5156 23.5349 18.318 21.2343 17.4027C23.6843 17.7604 26.1529 17.8029 26.5453 16.6314C26.7072 16.1479 26.7072 15.8521 26.5453 15.3686C26.1529 14.1971 23.6843 14.2396 21.2343 14.5973C23.5349 13.682 25.694 12.4843 25.4479 11.2737C25.3464 10.774 25.1984 10.5178 24.8164 10.18C23.8978 9.36781 21.8057 10.6142 19.8748 12.1337C21.3986 10.2062 22.6496 8.11687 21.8394 7.19641C21.5025 6.81367 21.2466 6.66516 20.7471 6.56252C19.5287 6.31212 18.3181 8.50002 17.3953 10.8162C17.7598 8.34975 17.811 5.84979 16.6315 5.45476Z" fill="white"/>
</svg>
